<?xml version="1.0" encoding="UTF-8" standalone="no"?>
<svg xmlns="http://www.w3.org/2000/svg" viewBox="0 0 210 210">
    <path d="M38 97.3c-.1 6.7.1 12.7 1.5 18.7.6 2 4 3 4.7 1q-.3-3-.2-6l.1-13.7h-.7l-.6 8.7c-1.9 1-3.8-1-3.9-3q-.5-2.9 0-5.7zm127 0c0 6.7 1 13.7 1 20.7 3 1 6 0 5-3 1-6 1-12 1-17.7h-1c0 2.3 0 4.7 1 6.7 0 3-4 4-5 1-2-2-1-5-1-7.7zm-139.7 0a22 22 0 0 0 1.3 7.7c.6 2 .9 4 2.2 5 .7 1 1.8 1 2.4 0q1.1-5.8 1.4-12.7h-.7l-.1 2.6c-.2 1.1-1.3 3.1-2.7 3.1-1.3 0-2.5-1-2.9-2q-.5-2-.4-3.7zm152.7 0c0 4.7 1 8.7 1 12.7 1 1 2 1 3 1 1-2 1-4 2-5 0-2 1-3 1-5v-3.7c0 1.3 0 2.6-1 3.7 0 2-1 3-2 3-2-1-3-2-3-4v-2.7zm-21 2.7c-5 9-6 19-13 27-11 15-31 24-49.4 19-15.9-4-29-16-35.1-32-1.9-2-3.9-8-7.4-8 .8 11 5 22 12.4 30 12.6 15 33.7 23 52.5 17 21-6 38-25 40-47zm-77.9 81c-1 0 1.4 6 6.3 13l1.5 2h.6c-4.1-6 4.3-5 6.6-9 .3 4-2.1 7-.6 9-.1-1 0-1 .2-2 .4-1 .9-4 1.2-6l.6-4-3 3c-3.6 4-5 4-9.8-2-2-3-3.2-4-3.6-4m51.9 1c-1 0-3 1-5 3-6 6-6 6-10 3-4-4-4-3-3 3l2 5c1-2-3-10 3-4 4 0 13-11 7-2-2 3-6 5-4 6 0-1 1-1 1-1 1 0 9-11 9-13m-43.1 10c-2.2 4 5.1 5 0 0" style="fill:#cbcbcb"/>
    <path d="M22.3 194c0-14 18.2-30 38.1-34 15.7-4 16.4-5 9.4-9-5.7-3-15.3-14-18.5-20l-2.4-5h-6.8l-6.8 1-6.5-6Q6.6 98.5 27.7 77c5-5.1 5.7-5.5 12-6.1l6.6-.8v-5.6c0-6.9 1.7-10.5 8.4-17.6l5.1-5.3-2.3-4.6c-1.8-3.7-2.3-6.5-2.3-13.8 0-11.3.7-12.1 6.8-8.1 11.4 7.6 22.6 9.4 40 6.3 25-4.5 41 1 49 17.1 1 3.7 4 8 6 9.6 5 4.2 7 10.4 7 16.8v5.5h7v-7.9c0-4.3 0-10-1-12.5-2-7.5 1-11.7 7-11 3 .5 6 11.3 3 13.1-1 .4-1 5.4-1 11.5v10.8l4 4.4c13 11.7 13 32.2 0 40.2l-5 5q-1.5 3-12 3l-6-1-3 6c-4 7-12 16-19 19-3 3-5 5-4 5 4 0 26 7 31 9 11 6 21 18 23 28 1 4-7 6-8 2-2-8-11-20-15-20 0 0-1 4-1 11v10h-7v-27l-4-1c-2 0-5-1-7-1-3-1-3-1-5 5-1 3-4 10-7 15l-4 10h-4c-3 0-5-1-5-1 0-1 1-1 1-1 1 0 9-11 9-13 0-1-2 1-5 3-6 6-6 6-10 3-4-4-4-3-3 3l2 6h-11c-10.9 0-11 0-10.3-3 .4-1 .9-4 1.2-6l.6-4-3 3c-3.6 4-5 4-9.8-2-6.4-9-4.4-2 2.7 9l1.9 3-4.1-1c-4.9 0-8.6-6-13.6-21l-2.9-9-6.8 2-6.8 1-.3 14c-.3 12-.5 14-1.9 13h-3.7c-1.8 0-2-1-2-11 0-6-.2-10-.5-10-3.4 0-12.8 12-14 18-1 5-8.4 6-8.4 1m73.2-20 2-2-4.2-2c-2.2-2-5.6-4-7.5-7l-3.4-4-3.5 3c-5 3-4.4 5 3 13l6.4 7 2.6-2c1.4-2 3.4-4 4.6-6m32.5 0c8-8 8-9 3-12-5-2-5-2-6 0-3 4-6 6-10 8l-4 1 4 5c6 7 5 7 13-2m-14-10c2-3 1-3-6-2-3 1-8 1-9.9 1l-4.4-1 2.6 2c3.3 3 14.7 3 17.7 0m3-11c20-5 39-26 39-45l1-8-2 4c-5 10-10 13-22 13-15 0-21-5-24-19.2-1-7-7-4.9-9.3 3.2-6.6 21-35.8 23-44.6 4-4.2-9.7-3.8 3 .5 16a52 52 0 0 0 61.4 32m-19.9-16c-6-2-10.1-6-10.1-10 0-3 2.9-3 6.6 1 6.4 5 16.4 5 23.4-1 3-4 4-4 5-2 7 7-13 16-24.9 12m-53-38.5.2-19.9-2.9.3-2.9.4-.4 10.9q-.8 28 3.4 27.8h2.4zM172 110V89.8l-1-11.1h-6v19.9l1 19.4h2c3 0 3 0 4-8m-85.1-1c5.3-4 6.8-7 6.8-14.5 0-10.5-.2-10.7-16-10.3l-13.1.3-2.4 3.5c-9.2 14 11.2 31 24.7 21m-13.2-5c-2.9-1-5.9-6-5.1-8.1.6-1.5 1-1.4 4.1.5 4.6 2.8 5.7 2.7 9.2-.6 4.4-4.2 7.2-.5 3.2 4.2-3.3 4-7 6-11.4 4m67.3 6c6-3 9-8 9-15.9 0-9.3-2-10.2-17-10.1-13 0-14 .2-16 4.5-6 15.5 9 28.5 24 21.5m-14-8c-4-3.4-4-9 0-5.6 4 2.7 5 2.7 10 .1 7-4.6 8 1.4 0 6.5-3 2-7 2-10-1m58 2c1-6.2 0-12.6-4-16.3-3-2.7-4 .5-3 13.3 1 12 3 13 7 3M31.7 97.5c0-13.5-.5-14.6-4-8.5-3 5.3-3 13-.2 18 3.5 5 4.2 4 4.2-9.5M112 83.4c2-5.2 4-5.7 25-5.7 10 0 19-.3 19-.6 0-1.6-4-8-9-14.7-3-4-6-8.2-6-9.2s0-1.6-1-1.3c-25 9.7-47.9 10.7-64.9 3.1-4.5-2-6.4-2.4-6.7-1.5-.2.7-2.4 4.2-4.8 7.8-4.2 6-9 14.5-9 15.8 0 .3 8.6.6 19.2.6 20.2 0 25.7.9 25.7 4.2 0 6.1 9.5 7.3 12.5 1.5" style="fill:#0e0e0e"/>
</svg>