<svg xmlns="http://www.w3.org/2000/svg" xml:space="preserve" width="220mm" height="211mm" viewBox="0 0 220 211"><g style="display:inline"><path d="M-.667 241c-.02-18-.01-189.6.02-191.3l.01-.8H219V260H-.639ZM87.8 213c.3 0 .6 0 .6-1 .3 0 4.8-5 6.4-6 4.5-2 8.2-3 19.2-3 10-1 11-1 9-3-13-16-7-37 10-34 3 1 0-1-3-2-16-3-23 16-13 31 4 6 5 6-3 6-24.6-1-33.3 1-36.9 8-1.6 3-1.3 4 1.5 4h2.3l.4-1c1-3 7.5-8 9.3-7 1.4 1 1 2-1.3 4-2.7 1-4.4 3-4.4 4zm-46.5-9c2.8-4 7.7-7 9.4-5 1.1 1 .9 1-1.8 2-1.8 1-4.3 4-3.5 4 1.4 0 4-2 6.7-4 3.9-3 5.6-3 17.5-4 10.8-1 11.4-1 8.7-4-2.2-3-2.6-4-3.3-6-.4 0-.9-2-1.2-2-.7-2-1.3-5-1.5-7l-.1-2h-.8c-2.5-1-.1 8 3.7 13 1.9 3 2.7 5 1.8 5-.2 1-4.5 1-12.2 1H47.2c-5.5 2-9.6 5-10.6 9-.3 1-.3 1 1.9 1h2zm58-7s-2-1-2.3-1-.4 1-.2 1 2.5 1 2.5 0m-27.5-6s-.4-1-.9-1c-2.2-4-3.4-8-3.9-12l-.3-2h-7.6c-9.5 0-10.1 0-11.3-3-.2-1-.8-2-1.3-3-.6-2-1.6-4-2.4-6-.7-1-2.4-5-3.7-8-1.3-4-2.7-7-3.2-8-1.1-3-1.2-2-1 2 .3 13 7.4 31 16.2 40l.9 1h4.8zm93.2-1c5 0 9-2 14-6 3-2 6-6 7-8s1-2-1-1c-10 13-26 17-38 9-1 0-1 1-1 2 1 0 4 2 5 3 4 1 8 2 14 1m-72.6-3c-.2 0-.4-1-.5-1h-.2c0-1-1.1-2-1.4-1-.2 0 2 3 2.3 3 .1 0 0 0-.2-1m16.6 0c1-1 1-1 1-3-1-2-1-6 0-9 0-2 0-2-2-2-1 0-4 1-7 1-2.7 0-5.2 1-5.4 1-.7 0-6.4 1-7.4 1h-.9c.1 0 .1 1 .1 1h.9c.1 0 3.1 4 4.3 5 4.2 4 11.4 6 16.4 5m58-3c4-1 4-1 7-6 3-6 6-11 6-12s-5-1-8-1c-9 0-12 0-12-1 0-2 1-2 7-2h14c0-1 1-4 1-6 0-1 1-1-20-1-19 0-21 0-21-1-2-1-3-8-1-11 1-2 0-2 24-2h20s0-5-1-8c-1-8-6-19-9-22-1-1-1-1-1 1-4 23-36 27-47 6-6-13 3-30.3 17-33.1 3-.5 3-.6-2-2.3-5-2.1-12-4-15-4.5v1.2c0 8.9-3 16-10 20.4l-2 1.3 1 1s1 1 1 2 1 2 1 2c1 1 1 2 0 9-1 3-2 7-4 10l-1 1 1 1c1 2 6 7 9 10 15 15 22 27 24 40v3s7 3 10 4 8 1 11 0m-12-13c-1 0-1-1 0-1 0-1 1-1 5-1h5v1c1 0 1 1 0 1v1h-5c-4 0-4 0-5-1m-3-6v-2l1-1h5l1 1c0 2-1 2-4 2h-2zm-65.5 7c.1 0-.3-1-.9-2-.6-2-1.4-4-1.9-5-2.8-7-5.8-14-6-14-.2-1-35.6 0-35.6 0s7.3 17 8.8 20l.5 1h1.2c3.1 1 33.8 1 33.9 0m6 0c1.6 0 5.1-1 7.5-2h5c3 0 7-1 8-3 0 0-8 0-12 1h-8.2c-2.9-1-4.6-1-4.4 0 1.4 3 2 4 2.6 4zm2.2-9c1.3-3 2.3-4 5.3-5 7-3 9-5 9-9 1-5-1-8-2-6l-1 1h1v2c0 4-2 7-7.6 9-4.9 2-6.5 3-7.6 6q-1.65 3 .6 3c1.3 0 1.4 0 2.3-1m.8-10c8.5-3 9.5-5 5.5-8q-3.6-4.5-7.8-3c-1.4 1-1.3 1-1.7 5-.1 2-.3 5-.5 6-.3 4-.4 3 1.5 2 .8 0 2.2-1 3-2m63.5-2c2-2 1-5-1-5-1-1-2 1-2 2 0 2 2 4 3 3m-75.7-2c4.2-4 5-5 5.5-10 .5-4 .8-4-3.1-4-12.7 0-21.9-6-21.9-14v-1l-1.2-1c-2.9 0-3.3-1-3.5-8-.1-7-.7-6 6.5-6h5.5l.6-1c.6-1 2.1-4 2.9-4.7l.6-.6-1.8-1.8c-2.2-2.2-3.3-3.8-4.7-6.5-1.2-2.5-.9-2.5-4-.3-14.3 9.9-25.6 28.9-28 46.9-.8 6-.8 7 .2 6 .8-1 1.7-2 3-3h17.4c20.9 0 19.4-1 22.5 7 2.1 4 1.8 4 3.5 2m92.7 1c2-1 1-4 0-4-2-1-3 3-2 4s1 1 2 0m-6 0c1-1 1-3 0-4 0-1-1-1-2 0-2 2 0 6 2 4m-6 0c1-1 1-2 1-3-1-1-2-1-3 0-1 2 1 4 2 3m-99.3-2c13.3 0 12.1 0 10.9-2-.7-2-1.3-2-2.4-2h-9.9c-3.7 0-10-1-14.1-1-9.6 0-10.2 0-8.7 4l.4 1h8.2ZM44 147c-1.1-1-1-2 .1-2 1.3-1 2.5 0 2.5 1s-1.3 2-2.6 1m5.9 0c-1.3-1-1.1-2 .4-3 1.6 0 2.6 2 1.4 3zm41.7-15c1.8 0 3-1 4.2-2 0-2-10.3-8-16.1-8h-1.8l-1.3 1c-3.1 3-5.1 4-6.7 3-1.3-1-1.1 0 .5 1 4.5 4 13 6 21.2 5m51.4-4-2-2c0-1-1-2-1-3-1-1-1-2-1-2-1 0-5 3-5 3 3 2 9 5 9 4m13 0c1-1 3-2 4-3 1 0 2-1 2-1 1-1 1-1 0-1s-2-1-2-1c-2-1-2-1-2 1-1 1-2 3-3 4s-1 1 1 1m-9-4c0-5 0-5-3-4s-2 2 1 6c2 2 2 2 2-2m7-1c1-2 0-4-3-3-1 0-1 6-1 7 1 1 3-2 4-4m-21-2s1-1 2-1c3-2 3-2 2-3 0-2-1-5-1-6s0-1-5-1h-4c0 2 2 7 4 10 1 2 1 2 2 1m33-1s0-1 1-1c0-1 2-7 2-9h-8v2c0 1-1 2-1 4v2s0 1 1 1c1 1 3 1 3 1 1 1 1 1 2 0m-97.8-2h4.1c.4 0 1-1 2.4-2 1-1 2.3-2 2.9-2 2.1-2 2.4-2 1.1-2-2.3-1-9.2 3-10.9 6-.8 1-.7 1 .4 0m76.8 0c2-1 2-1 2-4 0-5 1-4-4-4h-4l2 8zm11-1c1-1 2-6 2-7h-8v3c0 5 0 5 1 5h3c2 0 2 0 2-1m-89.4-2c1.5-2 1.5-2 1.4-3-.1 0 0-1 .5-2 .4 0 .7-1 .7-1v-1h-6.4v8h.8c1.2 0 1.4 0 3-1m6.7-6c.9-1 .9-1-.2-1-.4 0-.5 0-.7 1-.1 0-.3 1-.3 1-.3 0 .4 0 1.2-1m3.2 0h-1.4.7zm59.5-4c0-2 1-4 1-5.6 1-1.5 1-1.4-2-2.5-1-.5-2-1.1-2-1.3 0-.3-1-.5-1-.4-2 2.8-4 4.8-4 8.8-1 3-1 3 4 3l4-1zm11-2c0-3.7 0-3.8-1-3.9l-3-.3c-2-.2-2-.2-2 0-1 .7-2 7.2-2 7.2 0 1 2 1 4 1l4-1zm11 3s-1-6.3-2-6.8c0-.4 0-.4-1-.4 0 .1-1 .2-2 .3-2 .1-3 .1-3 .2v7.7h4c2 0 4 0 4-1m11 0c1-1-2-7.7-4-9.6l-1-1-1 .6c0 .3-1 .8-2 1.1-1 .5-2 .7-1 1 0 1.1 1 4.9 1 5.9v2c0 1 8 1 8 0m-88.4-4c4.8-4.4 13.5-7.7 18.4-6.8.7.1 1-.9.7-1.5-.4-.4-7.5-.2-9.6.2-5.8 1.3-12.2 5.4-14.4 9.1-.8 2-.8 2 1.1 2H78Zm23.4-2.6c0-.1 0-1.1 1-2.3 0-8.1 6-16.2 15-18.9 2-.5 2-.6 2-1.1 0-.8 0-.9-2-.4-7 1.5-13 6.2-15 11.6-2 3.5-3 9.8-2 10.9 1 .4 1 .5 1 .2m9-2c5-3 9-9.4 9-14.4 0-2 0-1.9-3-.8-5 2.3-9 6.6-10 12.3-1 3.1-1 2.2 1 3.2 0 1.5 3 .1 3-.3m40-1.1c2-.2 2-.2 2-1-1-1.6-5-6.9-5-6.3v7.7l1-.1c1-.1 2-.2 2-.3m-6-3.5c0-4.4 0-4.4-2-2.3-4 4.8-4 5.8 1 6h1zm-7 .7c0-1.4 1-2.8 3-4.3v-1.1c0-.4-6 2.4-7 3.8-2 1-1 1.1 0 1.8 1 .3 2 .7 2 .8 1 .5 1 .5 2-1m20 .5c3-1.2 3-1.2-1-3.1-5-3.2-5-3.3-4-.9 1 .8 2 2.2 2 3.2 1 1.9 1 1.9 3 .8m-59-4.7c1-4.6 5-9.1 10-12.6 1-.6 1-1.1 1-1.2s-6 .2-9 .4c-3.4.3-9.6 1.5-13 2.6-1.7.5-3.5 1-4 1.1-1.2.3-1.2.3.3 1.9 2.2 2.3 3.7 4.7 4.8 7.5l.5 1.3h3.1c1.8 0 3.6.1 4 .2 1.3.3 1.3.3 2.3-1.2" style="display:inline;fill:#b6a59c" transform="translate(.677 -48.9)"/><path d="M77.9 217c-4.9-1-6.5-3-4.7-7 .6-2 1.6-2-14.2-2-27 0-26 0-26-2 0-5 3.8-10 9-12 4.7-2 6.7-3 19.9-2 8.6 0 10.3 0 10.3-1 0 0-.4-1-.9-1-2.1-4-3.5-8-3.9-11-.1-2-.3-3-.4-3l-.2-1H59c-9.9 1-9.5 1-11.4-4-.5-1-1.8-4-2.9-6-9.4-22-9.3-21-5.7-24 1.7-1 1.5-1 18.8-1H74l1.2 1c1.5 0 2.4 1 3.4 4 3.3 7 2.8 7 5.2 4 4.4-4 5.4-6 5.4-12l.1-2H87c-12.5 0-22.3-5-22.7-13-.1-2-.3-3-1.1-3-3 0-3.7-2-3.7-8 0-5 .1-6 1.1-6h10.6l1.1-2c.6-1 1.4-2 1.8-3 1.6-1.5 1.6-1.2-.3-3.1-2.1-2.1-3.9-4.7-5-7-.4-1-.8-1.8-.9-2-.4-.5-1.1-4.2-1.2-6.5-.3-5.7.9-7.9 4.1-7.8 7.5.1 17.5 8 20.1 15.8.4 1.2.3 1.2 4 1.2 1.9.1 3.8.2 4.4.3.7.3 1.7.2 1.7-1.9 4-10.9 22-20.7 24-13.2 2 9.7-2 20.1-10 24.2-1 1-1 1 0 2 0 1 1 1 1 3 0 0 0 1 1 2v5c-1 5-2 9-4 12-1 1-1 2-1 2s4 6 9 10c4 4 6 7 7 8s2 3 3 4c8 9 13 20 14 29 1 3 1 3 4 5 7 3 16 4 21 1 6-2 11-7 14-11 3-5 6-5 6-1 0 8-5 20-12 26-9 8-20 12-34 12-5 0-4-1-5 1-2 4-4 5-23 5-4 0-9 1-11 1-5 0-13.5 0-22.1 1zm18-4H106c2-1 6-1 10-1 17-1 19-1 20-4 1-1 0-8 0-11 0-1-1-3-1-3 1-1 2-1 3 0 0 1 1 1 2-1 10-14-5-35-20-28-5 3-8 7-8 15v5l1 2c1 3 2 6 5 9l2 4h-13c-20.5 1-26.6 2-30.2 9-1.7 4-1.4 4 1.8 4 2.4 0 2.4 0 3-1 .9-2 4.5-5 7.3-6l1.2-1 .5 1c.8 1 .7 1-1.7 3-2.4 1-3.7 2-4.2 3-.4 2-.3 2 2.7 1zm-18.8-9c3.3-3 7.3-5 13-6h2.6v-4l-2-2c-4-4-6.6-9-7.3-14-.1-1-.3-2-.3-2H70.2l-.1 1c-.2 3 2 9 4.7 13 3.6 5 4.5 4-11.5 4-12.7 0-13.1 0-17 1-5.3 2-9.6 6-10.1 9l-.2 1h4.8l.7-1c2.3-4 7.5-7 9-5 .8 0 .5 1-1.3 2s-5.3 4-5.1 4h31.8zm78.9 0c15-3 26-13 30-27 2-5 2-5-2-1-10 12-25 15-36 9-2-1-2-1-2 0 0 3-3 9-5 12l-2 1 1 1v6h7c5 0 7 0 9-1m-56-6c0-1-2.6-2-3.2-2-.3 0-.5 1-.2 2zm15-1v-1c-4-5-6-14-5-21 1-3 1-3-2-2-1 0-4 0-6 1-3.2 0-6.5 1-7.9 1h-4.8l-2.4 1 .1 1c.3 10 11.4 19 24 20zm-28.1-25c.1 0-.1 0-.4-1s-.9-2-1.5-4c-4.3-10-6.5-16-7.3-17l-.8-2c0-1-1.6-4-2.5-5H40.6c-1.2 1-1.1 4 .2 5 .2 1 .5 1 .7 2s2.8 7 6.3 15c2.4 6 3 7 3.4 7l.4 1h17.6c14.8 0 17.6 0 17.7-1m-27.8-5c-2.3-2-5.9-11-4.5-11 1.5 0 1.8 1 3.3 4 1.8 4 1.8 4 2.3 4 .6 0 .8 0 1.2-3 .4-4 .8-4 2-4 .8 0 1.2 0 1.8 2 .7 1 2.7 5 3.2 5 .8 1 1.2-1 1.2-5 0-1 .3-2 .7-3 1 0 2.5 1 2.2 2 0 0-.2 1-.3 3-.6 8-3.6 9-6.9 3-1.3-3-1.5-3-2.2 0-.9 4-2.1 5-4 3m-15.3-20c-.5-1-.5-1 0-2 .7-1 2 0 2.4 0 .7 2-1.3 3-2.4 2m6 0c-.5-1-.6-1-.2-2 .6-1 2.4 0 2.4 1s-1.5 1-2.2 1m45 25c1.6 0 3.8-1 4.8-1 1.4 0 3.4-1 4.4-1 5 0 11-2 9-3h-12c-4.6 1-6.6 1-8.8 0-4.3 0-4.5 0-3.1 3l1 2h.9Zm5.2-7c9-2 15-7 16-14 0-2 0-2 1-3 1 0 2 1 2 3 0 4-3 9-7 12-2 1-2 1 1 1l3 1 1-1c7-4 14-4 20 0 2 1 2 1 0-2-4-8-10-15-23-29-2-1-3-3-4-4l-1-1-2 2c-3 2-7.7 4-12.4 5h-2.1l-.1 2c-.1 1-.4 3-.6 5-.6 4-1.4 14-1.3 15 .1 0 .4 0 1.5-1 1.4-1 2.6-2 6.1-3 4.9-2 4.9-3 5.9-7 0-1 1-2 2-2s1 1 1 3c-1 3-3 6-6 7-1.5 1-3.3 2-4.4 2-3.4 2-5.7 4-5.8 7-.1 2 3.8 2 9.2 2m-12.3-6c0-3 .1-6 .2-6 .4-4 .4-4 .1-4-.1 0-.8 1-1.4 1-1 2-3.1 3-3.9 3q-.3 0 .9 3c.7 2 1.7 4 2.2 5 1.8 5 1.9 4 1.9-2m6-27c12.3-2 19.3-9 19.3-19 1-3 1-3 0-3H99.6c-.1 0-.2 1-.2 3-.1 4-.5 5-2.6 6-.7 0-10.9 1-13 0-2.2 0-3.3-2-3.6-5-.1-3-.1-3-2-3-3.2 0-9.9 5-11.2 7-.6 2-.2 2 .7 1 2.4-2 8.2-1 9.3 1l.4 1-.4 1c-.2 0-1.1 1-2 2-3.3 2-4.3 3-6.2 1-1.3-2-1.4-1-.4 0 3.2 6 14.4 9 25.3 7M67 115c1.5-2 1.6-2 1.5-3-.2 0-.1-1 .4-1l.6-2v-1h-7v8h.6c1.4 1 2.2 0 3.9-1m28.9 1c.3 0 .4-1 .3-4l-.1-4H83.5v4c.1 2 .2 4 .3 4zm-6.1-2c-1.6-1-1.1-4 .7-4 1.5 0 2.5 1 2.1 3-.5 1-1.8 2-2.8 1m-17.1-4c1.4-1 5.4-1 6.5 0l.5 1 .2-1c.9-1 .4-2-2.9-2h-3.2c-1.2 0-1.5 0-1.9 1-.5 2-.4 2 .8 1m36.3-4h4c0-2-2-4-3-4-2-1-1-2.5 1-3.3 6-2.2 11-8.8 11-15.5v-2.3c-1-.2-6 2.1-8 4.3-3 2.5-5 5.4-6 10-2 4.8-4 4.8-3-.1 1-7.6 8-14.7 16-16.7 1-.4 1-.7 1-1.8 0-.7-1-.7-4 .2-9 2.8-15 10.8-15 18.3 0 1.3-1 1.7-2 1.4s-1-.7-1-1.9c0-1.3-.1-1.4-4.1-1.4-8.6 0-16.3 3.6-20.2 9.8-1.8 2-2.6 2 11.3 2 11.2 0 11.1 0 12 1h4zM80.5 94.5c1.6-1.1 3.6-2 5.7-2.8l1.6-.5-.1-.8c-.1-3.5-5.9-9.7-11.7-12.2-5.6-2.5-6-2.3-6 2.2 0 5.8 1.9 10.5 6 14.4l1.8 1.8.7-.7c.4-.3 1.3-1 2-1.4" style="display:inline;fill:#442e36" transform="translate(.677 -48.9)"/></g></svg>